<?xml version="1.0" encoding="UTF-8"?>
<!DOCTYPE svg PUBLIC "-//W3C//DTD SVG 1.1//EN" "http://www.w3.org/Graphics/SVG/1.1/DTD/svg11.dtd">
<!-- Creator: CorelDRAW 2021 (64-Bit) -->
<svg xmlns="http://www.w3.org/2000/svg" xml:space="preserve" width="50px" height="50px" version="1.1" style="shape-rendering:geometricPrecision; text-rendering:geometricPrecision; image-rendering:optimizeQuality; fill-rule:evenodd; clip-rule:evenodd"
viewBox="0 0 50 50"
 xmlns:xlink="http://www.w3.org/1999/xlink"
 xmlns:xodm="http://www.corel.com/coreldraw/odm/2003">
 <defs>
  <style type="text/css">
   <![CDATA[
    .fil1 {fill:#888988}
    .fil0 {fill:#FCFDFC}
   ]]>
  </style>
 </defs>
 <g id="图层_x0020_1">
  <metadata id="CorelCorpID_0Corel-Layer"/>
  <g id="_2108966246352">
   <path class="fil0" d="M12.98 32.35l0.04 -0.04 0.04 -0.04 0.04 -0.04 0.04 -0.04 0.04 -0.04 0.04 -0.04 0.04 -0.04 0.04 -0.04 0.04 -0.04 0.04 -0.04 0.04 -0.04 0.04 -0.04 0.04 -0.04 0.04 -0.04 0.04 -0.04 0.04 -0.04 0.04 -0.04 0.04 -0.04 0.04 -0.04 0.04 -0.04 0.04 -0.04 0.04 -0.04 0.04 -0.04 0.04 -0.04 0.04 -0.04 0.04 -0.04 0.04 -0.04 0.04 -0.04 0.04 -0.04 0.04 -0.04 0.03 -0.04 0.04 -0.04 0.04 -0.04 0.04 -0.04 0.04 -0.04 0.04 -0.04 0.04 -0.04 0.04 -0.04 0.04 -0.04 0.04 -0.04 0.04 -0.04 0.04 -0.04 0.04 -0.04 0.04 -0.04 0.04 -0.04 0.04 -0.04 0.04 -0.04 0.04 -0.04 0.04 -0.04 0.04 -0.04 0.04 -0.04 0.04 -0.04 0.04 -0.04 0.04 -0.04 0.04 -0.04 0.04 -0.04 0.04 -0.04 0.04 -0.04 0.04 -0.04 0.04 -0.04 0.04 -0.04 0.04 -0.04 0.04 -0.04 0.04 -0.04 0.04 -0.04 0.04 -0.04 0.04 -0.04 0.04 -0.04 0.04 -0.04 0.04 -0.04 0.04 -0.04 0.04 -0.04 0.04 -0.04 0.04 -0.04 0.04 -0.04 0.04 -0.04 0.04 -0.04 0.04 -0.04 0.04 -0.04 0.04 -0.04 0.04 -0.04 0.04 -0.04 0.04 -0.04 0.04 -0.04 0.04 -0.04 0.04 -0.04 0.04 -0.04 0.04 -0.04 0.04 -0.04 0.04 -0.04 0.04 -0.04 0.04 -0.04 0.04 -0.04 0.04 -0.04 0.04 -0.04 0.04 -0.04 0.04 -0.04 0.04 -0.04 0.04 -0.04 0.04 -0.04 0.04 -0.04 0.04 -0.04 0.04 -0.04 0.04 -0.04 0.04 -0.04 0.04 -0.04 0.04 -0.04 0.04 -0.04 0.04 -0.04 0.04 -0.04 0.04 -0.04 0.04 -0.04 0.04 -0.04 0.04 -0.04 0.04 -0.04 0.04 -0.04 0.04 -0.04 0.04 -0.04 0.04 -0.04 0.04 -0.04 0.04 -0.04 0.04 -0.04 0.04 -0.04 0.04 -0.04 0.04 -0.04 0.04 -0.04 0.04 -0.04 0.04 -0.04 0.04 -0.04 0.04 -0.04 0.04 -0.04 0.04 -0.04 0.04 -0.04 0.04 -0.04 0.04 -0.04 0.04 -0.04 0.04 -0.04 0.04 -0.04 0.04 -0.04 0.04 -0.04 0.04 -0.04 0.04 -0.04 0.04 -0.04 0.04 -0.04 0.04 -0.04 0.04 -0.04 0.04 -0.04 0.04 -0.04 0.04 -0.04 0.04 -0.04 0.04 -0.04 0.04 -0.04 0.04 -0.04 0.04 -0.04 0.04 -0.04 0.04 -0.04 0.04 -0.04 0.04 -0.04 0.04 -0.04 0.04 -0.04 0.04 -0.04 0.04 -0.04 0.04 -0.04 0.04 -0.04 0.04 -0.04 0.04 -0.04 0.04 -0.04 0.04 -0.04 0.04 -0.04 0.04 -0.04 0.04 -0.04 0.04 -0.04 0.04 -0.04 0.04 -0.04 0.04 -0.04 0.04 -0.04 0.04 -0.04 0.04 -0.04 0.04 -0.04 0.04 -0.04 0.04 -0.04 0.04 -0.04 0.04 -0.04 0.04 -0.04 0.04 -0.04 0.04 -0.04 0.04 -0.04 0.04 -0.04 0.04 -0.04 0.04 -0.04 0.04 -0.04 0.04 -0.04 0.04 -0.04 0.04 -0.04 0.04 -0.04 0.04 -0.04 0.04 -0.04 0.04 -0.04 0.04 -0.04 0.04 -0.04 0.04 -0.04 0.04 -0.04 0.04 -0.04 0.04 -0.04 0.04 -0.04 0.04 -0.04 0.04 -0.04 0.04 -0.04 0.04 -0.04 0.04 -0.04 0.04 -0.04 0.04 -0.04 0.04 -0.04 0.04 -0.04 0.04 -0.04 0.04 -0.04 0.04 -0.04 0.04 -0.04 0.04 -0.04 0.04 -0.04 0.04 -0.04 0.04 -0.04 0.04 -0.04 0.04 -0.04 0.04 -0.04 0.04 -0.04 0.04 -0.04 0.04 -0.04 0.04 -0.04 0.04 -0.04 0.04 -0.04 0.04 -0.04 0.04 -0.04 0.04 -0.04 0.04 -0.04 0.04 -0.04 0.04 -0.04 0.04 -0.04 0.04 -0.04 0.04 -0.04 0.04 -0.04 0.04 -0.04 0.04 -0.04 0.04 -0.04 0.04 -0.04 0.04 -0.04 0.04 -0.04 0.04 -0.04 0.04 -0.04 0.04 -0.04 0.04 -0.04 0.04 -0.04 0.04 -0.04 0.04 -0.04 0.04 -0.04 0.04 -0.04 0.04 -0.04 0.04 -0.04 0.04 -0.04 0.04 -0.04 0.04 -0.04 0.04 -0.04 0.04 -0.04 0.04 -0.04 0.04 -0.04 0.04 -0.04 0.04 -0.04 0.04 -0.04 0.04 -0.04 0.04 -0.04 0.04 -0.04 0.04 -0.04 0.04 -0.04 0.04 -0.04 0.04 -0.04 0.04 -0.04 0.04 -0.04 0.04 -0.04 0.04 -0.04 0.04 -0.04 0.04 -0.04 0.04 -0.04 0.04 -0.04 0.04 -0.04 0.04 -0.04 0.04 -0.04 0.04 -0.04 0.04 -0.04 0.04 -0.04 0.04 -0.04 0.04 -0.04 0.04 -0.04 0.04 -0.04 0.04 -0.04 0.04 -0.04 0.04 -0.04 0.04 -0.04 0.04 -0.04 0.04 -0.04c0.09,-0.09 0.04,-0.05 0.07,-0.02 0.06,-0.02 0.05,-0.03 0.05,0.02l0.04 0.04 0.04 0.04 0.04 0.04 0.04 0.04 0.04 0.04 0.04 0.04 0.04 0.04 0.04 0.04 0.04 0.04 0.04 0.04 0.04 0.04 0.04 0.04 0.04 0.04 0.04 0.04 0.04 0.04 0.04 0.04 0.04 0.04 0.04 0.04 0.04 0.04 0.04 0.04 0.04 0.04 0.04 0.04 0.04 0.04 0.04 0.04 0.04 0.04 0.04 0.04 0.04 0.04 0.04 0.04 0.04 0.04 0.04 0.04 0.04 0.04 0.04 0.04 0.04 0.04 0.04 0.04 0.04 0.04 0.04 0.04 0.04 0.04 0.04 0.04 0.04 0.04 0.04 0.04 0.04 0.04 0.04 0.04 0.04 0.04 0.04 0.04 0.04 0.04 0.04 0.04 0.04 0.04 0.04 0.04 0.04 0.04 0.04 0.04 0.04 0.04 0.04 0.04 0.04 0.04 0.04 0.04 0.04 0.04 0.04 0.04 0.04 0.04 0.04 0.04 0.04 0.04 0.04 0.04 0.04 0.04 0.04 0.04 0.04 0.04 0.04 0.04 0.04 0.04 0.04 0.04 0.04 0.04 0.04 0.04 0.04 0.04 0.04 0.04 0.04 0.04 0.04 0.04 0.04 0.04 0.04 0.04 0.04 0.04 0.04 0.04 0.04 0.04 0.04 0.04 0.04 0.04 0.04 0.04 0.04 0.04 0.04 0.04 0.04 0.04 0.04 0.04 0.04 0.04 0.04 0.04 0.04 0.04 0.04 0.04 0.04 0.04 0.04 0.04 0.04 0.04 0.04 0.04 0.04 0.04 0.04 0.04 0.04 0.04 0.04 0.04 0.04 0.04 0.04 0.04 0.04 0.04 0.04 0.04 0.04 0.04 0.04 0.04 0.04 0.04 0.04 0.04 0.04 0.04 0.04 0.04 0.04 0.04 0.04 0.04 0.04 0.04 0.04 0.04 0.04 0.04 0.04 0.04 0.04 0.04 0.04 0.04 0.04 0.04 0.04 0.04 0.04 0.04 0.04 0.04 0.04 0.04 0.04 0.04 0.04 0.04 0.04 0.04 0.04 0.04 0.04 0.04 0.04 0.04 0.04 0.04 0.04 0.04 0.04 0.04 0.04 0.04 0.04 0.04 0.04 0.04 0.04 0.04 0.04 0.04 0.04 0.04 0.04 0.04 0.04 0.04 0.04 0.04 0.04 0.04 0.04 0.04 0.04 0.04 0.04 0.04 0.04 0.04 0.04 0.04 0.04 0.04 0.04 0.04 0.04 0.04 0.04 0.04 0.04 0.04 0.04 0.04 0.04 0.04 0.04 0.04 0.04 0.04 0.04 0.04 0.04 0.04 0.04 0.04 0.04 0.04 0.04 0.04 0.04 0.04 0.04 0.04 0.04 0.04 0.04 0.04 0.04 0.04 0.04 0.04 0.04 0.04 0.04 0.04 0.04 0.04 0.04 0.04 0.04 0.04 0.04 0.04 0.04 0.04 0.04 0.04 0.04 0.04 0.04 0.04 0.04 0.04 0.04 0.04 0.04 0.04 0.04 0.04 0.04 0.04 0.04 0.04 0.04 0.04 0.04 0.04 0.04 0.04 0.04 0.04 0.04 0.04 0.04 0.04 0.04 0.04 0.04 0.04 0.04 0.04 0.04 0.04 0.04 0.04 0.04 0.04 0.04 0.04 0.04 0.04 0.04 0.04 0.04 0.04 0.04 0.04 0.04 0.04 0.04 0.04 0.04 0.04 0.04 0.04 0.04 0.04 0.04 0.04 0.04 0.04 0.04 0.04 0.04 0.04 0.04 0.04 0.04 0.04 0.04 0.04 0.04 0.04 0.04 0.04 0.04 0.04 0.04 0.04 0.04 0.04 0.04 0.04 0.04 0.04 0.04 0.04 0.04 0.04 0.04 0.04 0.04 0.04 0.04 0.04 0.04 0.04 0.04 0.04 0.04 0.04 0.04 0.04 0.04 0.04 0.04 0.04 0.04 0.04 0.04 0.04 0.04 0.04 0.04 0.04 0.04 0.04 0.04 0.04 0.04 0.04 0.04 0.04 0.04 0.04 0.04 0.04 0.04 0.04 0.04 0.04 0.04 0.04 0.04 0.04 0.04 0.04 0.04 0.04 0.04 0.04 0.04 0.04 0.04 0.04 0.04 0.04 0.04 0.04 0.04 0.04 0.04 0.04 0.04 0.04 0.04 0.04 0.04 0.04 0.04 0.04 0.04 0.04 0.04 0.04 0.04 0.04 0.04 0.04 0.04 0.04 0.04 0.04 0.04 0.04 0.04 0.04 0.04 0.04 0.04 0.04 0.04 0.04 0.04 0.04 0.04 0.04 0.04 0.04 0.04 0.04 0.04 0.04 0.04 0.04 0.04 0.04 0.04 0.04 0.04 0.04 0.04 0.04 0.04 0.04 0.04 0.04 0.04 0.04 0.04 0.04 0.04 0.04 0.04 0.04 0.04 0.04 0.04 0.04 0.04 0.04 0.04 0.04 0.04 0.04 0.04 0.04 0.04 0.04 0.04 0.04 0.04 0.04 0.04 0.04 0.04 0.04 0.04 0.04 0.04 0.04 0.04 0.04 0.04 0.04 0.04 0.04 0.04 0.04 0.04 0.04 0.04 0.04 2.99 -2.94 -15.01 -15.04 -14.99 15.01 2.98 2.97z"/>
   <path class="fil1" d="M24.93 20.39l-0.04 0.04 -0.04 0.04 -0.04 0.04 -0.04 0.04 -0.04 0.04 -0.04 0.04 -0.04 0.04 -0.04 0.04 -0.04 0.04 -0.04 0.04 -0.04 0.04 -0.04 0.04 -0.04 0.04 -0.04 0.04 -0.04 0.04 -0.04 0.04 -0.04 0.04 -0.04 0.04 -0.04 0.04 -0.04 0.04 -0.04 0.04 -0.04 0.04 -0.04 0.04 -0.04 0.04 -0.04 0.04 -0.04 0.04 -0.04 0.04 -0.04 0.04 -0.04 0.04 -0.04 0.04 -0.04 0.04 -0.04 0.04 -0.04 0.04 -0.04 0.04 -0.04 0.04 -0.04 0.04 -0.04 0.04 -0.04 0.04 -0.04 0.04 -0.04 0.04 -0.04 0.04 -0.04 0.04 -0.04 0.04 -0.04 0.04 -0.04 0.04 -0.04 0.04 -0.04 0.04 -0.04 0.04 -0.04 0.04 -0.04 0.04 -0.04 0.04 -0.04 0.04 -0.04 0.04 -0.04 0.04 -0.04 0.04 -0.04 0.04 -0.04 0.04 -0.04 0.04 -0.04 0.04 -0.04 0.04 -0.04 0.04 -0.04 0.04 -0.04 0.04 -0.04 0.04 -0.04 0.04 -0.04 0.04 -0.04 0.04 -0.04 0.04 -0.04 0.04 -0.04 0.04 -0.04 0.04 -0.04 0.04 -0.04 0.04 -0.04 0.04 -0.04 0.04 -0.04 0.04 -0.04 0.04 -0.04 0.04 -0.04 0.04 -0.04 0.04 -0.04 0.04 -0.04 0.04 -0.04 0.04 -0.04 0.04 -0.04 0.04 -0.04 0.04 -0.04 0.04 -0.04 0.04 -0.04 0.04 -0.04 0.04 -0.04 0.04 -0.04 0.04 -0.04 0.04 -0.04 0.04 -0.04 0.04 -0.04 0.04 -0.04 0.04 -0.04 0.04 -0.04 0.04 -0.04 0.04 -0.04 0.04 -0.04 0.04 -0.04 0.04 -0.04 0.04 -0.04 0.04 -0.04 0.04 -0.04 0.04 -0.04 0.04 -0.04 0.04 -0.04 0.04 -0.04 0.04 -0.04 0.04 -0.04 0.04 -0.04 0.04 -0.04 0.04 -0.04 0.04 -0.04 0.04 -0.04 0.04 -0.04 0.04 -0.04 0.04 -0.04 0.04 -0.04 0.04 -0.04 0.04 -0.04 0.04 -0.04 0.04 -0.04 0.04 -0.04 0.04 -0.04 0.04 -0.04 0.04 -0.04 0.04 -0.04 0.04 -0.04 0.04 -0.04 0.04 -0.04 0.04 -0.04 0.04 -0.04 0.04 -0.04 0.04 -0.04 0.04 -0.04 0.04 -0.04 0.04 -0.04 0.04 -0.04 0.04 -0.04 0.04 -0.04 0.04 -0.04 0.04 -0.04 0.04 -0.04 0.04 -0.04 0.04 -0.04 0.04 -0.04 0.04 -0.04 0.04 -0.04 0.04 -0.04 0.04 -0.04 0.04 -0.04 0.04 -0.04 0.04 -0.04 0.04 -0.04 0.04 -0.04 0.04 -0.04 0.04 -0.04 0.04 -0.04 0.04 -0.04 0.04 -0.04 0.04 -0.04 0.04 -0.04 0.04 -0.04 0.04 -0.04 0.04 -0.04 0.04 -0.04 0.04 -0.04 0.04 -0.04 0.04 -0.04 0.04 -0.04 0.04 -0.04 0.04 -0.04 0.04 -0.04 0.04 -0.04 0.04 -0.04 0.04 -0.04 0.04 -0.04 0.04 -0.04 0.04 -0.04 0.04 -0.04 0.04 -0.04 0.04 -0.04 0.04 -0.04 0.04 -0.04 0.04 -0.04 0.04 -0.04 0.04 -0.04 0.04 -0.04 0.04 -0.04 0.04 -0.04 0.04 -0.04 0.04 -0.04 0.04 -0.04 0.04 -0.04 0.04 -0.04 0.04 -0.04 0.04 -0.04 0.04 -0.04 0.04 -0.04 0.04 -0.04 0.04 -0.04 0.04 -0.04 0.04 -0.04 0.04 -0.04 0.04 -0.04 0.04 -0.04 0.04 -0.04 0.04 -0.04 0.04 -0.04 0.04 -0.04 0.04 -0.04 0.04 -0.04 0.04 -0.04 0.04 -0.04 0.04 -0.04 0.04 -0.04 0.04 -0.04 0.04 -0.04 0.04 -0.04 0.04 -0.04 0.04 -0.04 0.04 -0.04 0.04 -0.04 0.04 -0.04 0.04 -0.04 0.04 -0.04 0.04 -0.04 0.04 -0.04 0.04 -0.04 0.04 -0.04 0.04 -0.04 0.04 -0.04 0.04 -0.04 0.04 -0.04 0.04 -0.04 0.04 -0.04 0.04 -0.04 0.04 -0.04 0.04 -0.04 0.04 -0.04 0.04 -0.04 0.04 -0.04 0.04 -0.04 0.04 -0.04 0.04 -0.04 0.04 -0.04 0.04 -0.04 0.04 -0.04 0.04 -0.04 0.04 -0.04 0.04 -0.04 0.04 -0.04 0.04 -0.04 0.04 -0.04 0.04 -0.04 0.04 -0.04 0.04 -0.04 0.04 -0.04 0.04 -0.04 0.04 -0.04 0.04 -0.04 0.04 -0.04 0.04 -0.04 0.04 -0.04 0.04 -0.03 0.04 -0.04 0.04 -0.04 0.04 -0.04 0.04 -0.04 0.04 -0.04 0.04 -0.04 0.04 -0.04 0.04 -0.04 0.04 -0.04 0.04 -0.04 0.04 -0.04 0.04 -0.04 0.04 -0.04 0.04 -0.04 0.04 -0.04 0.04 -0.04 0.04 -0.04 0.04 -0.04 0.04 -0.04 0.04 -0.04 0.04 -0.04 0.04 -0.04 0.04 -0.04 0.04 -0.04 0.04 -0.04 0.04 -0.04 0.04 -0.04 0.04 -0.04 0.04 -0.04 0.04 -0.04 0.04 0.04 -0.04 0.04 -0.04 0.04 -0.04 0.04 -0.04 0.04 -0.04 0.04 -0.04 0.04 -0.04 0.04 -0.04 0.04 -0.04 0.04 -0.04 0.04 -0.04 0.04 -0.04 0.04 -0.04 0.04 -0.04 0.04 -0.04 0.04 -0.04 0.04 -0.04 0.04 -0.04 0.04 -0.04 0.04 -0.04 0.04 -0.04 0.04 -0.04 0.04 -0.04 0.04 -0.04 0.04 -0.04 0.04 -0.04 0.04 -0.04 0.04 -0.04 0.04 -0.04 0.04 -0.04 0.03 -0.04 0.04 -0.04 0.04 -0.04 0.04 -0.04 0.04 -0.04 0.04 -0.04 0.04 -0.04 0.04 -0.04 0.04 -0.04 0.04 -0.04 0.04 -0.04 0.04 -0.04 0.04 -0.04 0.04 -0.04 0.04 -0.04 0.04 -0.04 0.04 -0.04 0.04 -0.04 0.04 -0.04 0.04 -0.04 0.04 -0.04 0.04 -0.04 0.04 -0.04 0.04 -0.04 0.04 -0.04 0.04 -0.04 0.04 -0.04 0.04 -0.04 0.04 -0.04 0.04 -0.04 0.04 -0.04 0.04 -0.04 0.04 -0.04 0.04 -0.04 0.04 -0.04 0.04 -0.04 0.04 -0.04 0.04 -0.04 0.04 -0.04 0.04 -0.04 0.04 -0.04 0.04 -0.04 0.04 -0.04 0.04 -0.04 0.04 -0.04 0.04 -0.04 0.04 -0.04 0.04 -0.04 0.04 -0.04 0.04 -0.04 0.04 -0.04 0.04 -0.04 0.04 -0.04 0.04 -0.04 0.04 -0.04 0.04 -0.04 0.04 -0.04 0.04 -0.04 0.04 -0.04 0.04 -0.04 0.04 -0.04 0.04 -0.04 0.04 -0.04 0.04 -0.04 0.04 -0.04 0.04 -0.04 0.04 -0.04 0.04 -0.04 0.04 -0.04 0.04 -0.04 0.04 -0.04 0.04 -0.04 0.04 -0.04 0.04 -0.04 0.04 -0.04 0.04 -0.04 0.04 -0.04 0.04 -0.04 0.04 -0.04 0.04 -0.04 0.04 -0.04 0.04 -0.04 0.04 -0.04 0.04 -0.04 0.04 -0.04 0.04 -0.04 0.04 -0.04 0.04 -0.04 0.04 -0.04 0.04 -0.04 0.04 -0.04 0.04 -0.04 0.04 -0.04 0.04 -0.04 0.04 -0.04 0.04 -0.04 0.04 -0.04 0.04 -0.04 0.04 -0.04 0.04 -0.04 0.04 -0.04 0.04 -0.04 0.04 -0.04 0.04 -0.04 0.04 -0.04 0.04 -0.04 0.04 -0.04 0.04 -0.04 0.04 -0.04 0.04 -0.04 0.04 -0.04 0.04 -0.04 0.04 -0.04 0.04 -0.04 0.04 -0.04 0.04 -0.04 0.04 -0.04 0.04 -0.04 0.04 -0.04 0.04 -0.04 0.04 -0.04 0.04 -0.04 0.04 -0.04 0.04 -0.04 0.04 -0.04 0.04 -0.04 0.04 -0.04 0.04 -0.04 0.04 -0.04 0.04 -0.04 0.04 -0.04 0.04 -0.04 0.04 -0.04 0.04 -0.04 0.04 -0.04 0.04 -0.04 0.04 -0.04 0.04 -0.04 0.04 -0.04 0.04 -0.04 0.04 -0.04 0.04 -0.04 0.04 -0.04 0.04 -0.04 0.04 -0.04 0.04 -0.04 0.04 -0.04 0.04 -0.04 0.04 -0.04 0.04 -0.04 0.04 -0.04 0.04 -0.04 0.04 -0.04 0.04 -0.04 0.04 -0.04 0.04 -0.04 0.04 -0.04 0.04 -0.04 0.04 -0.04 0.04 -0.04 0.04 -0.04 0.04 -0.04 0.04 -0.04 0.04 -0.04 0.04 -0.04 0.04 -0.04 0.04 -0.04 0.04 -0.04 0.04 -0.04 0.04 -0.04 0.04 -0.04 0.04 -0.04 0.04 -0.04 0.04 -0.04 0.04 -0.04 0.04 -0.04 0.04 -0.04 0.04 -0.04 0.04 -0.04 0.04 -0.04 0.04 -0.04 0.04 -0.04 0.04 -0.04 0.04 -0.04 0.04 -0.04 0.04 -0.04 0.04 -0.04 0.04 -0.04 0.04 -0.04 0.04 -0.04 0.04 -0.04 0.04 -0.04 0.04 -0.04 0.04 -0.04 0.04 -0.04 0.04 -0.04 0.04 -0.04 0.04 -0.04 0.04 -0.04 0.04 -0.04 0.04 -0.04 0.04 -0.04 0.04 -0.04 0.04 -0.04 0.04 -0.04 0.04 -0.04 0.04 -0.04 0.04 -0.04 0.04 -0.04 0.04 -0.04 0.04 -0.04 0.04 -0.04 0.04 -0.04 0.04 -0.04 0.04 -0.04 0.04 -0.04 0.04 -0.04 0.04 -0.04 0.04 -0.04 0.04 -0.04 0.04 -0.04 0.04 -0.04 0.04 -0.04 0.04 -0.04 0.04 -0.04 0.04 -0.04 0.04 -0.04 0.04 -0.04 0.04 -0.04 0.04 -0.04 0.04 -0.04 0.04 -0.04 0.04 -0.04 0.04 -0.04 0.04 -0.04 0.04 -0.04 0.04 -0.04 0.04 -0.04 0.04 -0.04 0.04 -0.04 0.04 -0.04 0.04 -0.04 0.04 -0.04 0.04 -0.04 0.04 -0.04 0.04 -0.04 0.04 -0.04 0.04 -0.04 0.04 -0.04 0.04 -0.04 0.04 -0.04 0.04 -0.04 0.04 -0.04 0.04 -0.04 0.04 -0.04 0.04 -0.04 0.04 -0.04 0.04 -0.04 0.04 -0.04 0.04 -0.04 0.04 -0.04 0.04 -0.04 0.04 -0.04 0.04 -0.04 0.04 -0.04 0.04 -0.04 0.04 -0.04 0.04 -0.04 0.04 -0.04 0.07 -0.02 0.05 0.02 0.04 0.04 0.04 0.04 0.04 0.04 0.04 0.04 0.04 0.04 0.04 0.04 0.04 0.04 0.04 0.04 0.04 0.04 0.04 0.04 0.04 0.04 0.04 0.04 0.04 0.04 0.04 0.04 0.04 0.04 0.04 0.04 0.04 0.04 0.04 0.04 0.04 0.04 0.04 0.04 0.04 0.04 0.04 0.04 0.04 0.04 0.04 0.04 0.04 0.04 0.04 0.04 0.04 0.04 0.04 0.04 0.04 0.04 0.04 0.04 0.04 0.04 0.04 0.04 0.04 0.04 0.04 0.04 0.04 0.04 0.04 0.04 0.04 0.04 0.04 0.04 0.04 0.04 0.04 0.04 0.04 0.04 0.04 0.04 0.04 0.04 0.04 0.04 0.04 0.04 0.04 0.04 0.04 0.04 0.04 0.04 0.04 0.04 0.04 0.04 0.04 0.04 0.04 0.04 0.04 0.04 0.04 0.04 0.04 0.04 0.04 0.04 0.04 0.04 0.04 0.04 0.04 0.04 0.04 0.04 0.04 0.04 0.04 0.04 0.04 0.04 0.04 0.04 0.04 0.04 0.04 0.04 0.04 0.04 0.04 0.04 0.04 0.04 0.04 0.04 0.04 0.04 0.04 0.04 0.04 0.04 0.04 0.04 0.04 0.04 0.04 0.04 0.04 0.04 0.04 0.04 0.04 0.04 0.04 0.04 0.04 0.04 0.04 0.04 0.04 0.04 0.04 0.04 0.04 0.04 0.04 0.04 0.04 0.04 0.04 0.04 0.04 0.04 0.04 0.04 0.04 0.04 0.04 0.04 0.04 0.04 0.04 0.04 0.04 0.04 0.04 0.04 0.04 0.04 0.04 0.04 0.04 0.04 0.04 0.04 0.04 0.04 0.04 0.04 0.04 0.04 0.04 0.04 0.04 0.04 0.04 0.04 0.04 0.04 0.04 0.04 0.04 0.04 0.04 0.04 0.04 0.04 0.04 0.04 0.04 0.04 0.04 0.04 0.04 0.04 0.04 0.04 0.04 0.04 0.04 0.04 0.04 0.04 0.04 0.04 0.04 0.04 0.04 0.04 0.04 0.04 0.04 0.04 0.04 0.04 0.04 0.04 0.04 0.04 0.04 0.04 0.04 0.04 0.04 0.04 0.04 0.04 0.04 0.04 0.04 0.04 0.04 0.04 0.04 0.04 0.04 0.04 0.04 0.04 0.04 0.04 0.04 0.04 0.04 0.04 0.04 0.04 0.04 0.04 0.04 0.04 0.04 0.04 0.04 0.04 0.04 0.04 0.04 0.04 0.04 0.04 0.04 0.04 0.04 0.04 0.04 0.04 0.04 0.04 0.04 0.04 0.04 0.04 0.04 0.04 0.04 0.04 0.04 0.04 0.04 0.04 0.04 0.04 0.04 0.04 0.04 0.04 0.04 0.04 0.04 0.04 0.04 0.04 0.04 0.04 0.04 0.04 0.04 0.04 0.04 0.04 0.04 0.04 0.04 0.04 0.04 0.04 0.04 0.04 0.04 0.04 0.04 0.04 0.04 0.04 0.04 0.04 0.04 0.04 0.04 0.04 0.04 0.04 0.04 0.04 0.04 0.04 0.04 0.04 0.04 0.04 0.04 0.04 0.04 0.04 0.04 0.04 0.04 0.04 0.04 0.04 0.04 0.04 0.04 0.04 0.04 0.04 0.04 0.04 0.04 0.04 0.04 0.04 0.04 0.04 0.04 0.04 0.04 0.04 0.04 0.04 0.04 0.04 0.04 0.04 0.04 0.04 0.04 0.04 0.04 0.04 0.04 0.04 0.04 0.04 0.04 0.04 0.04 0.04 0.04 0.04 0.04 0.04 0.04 0.04 0.04 0.04 0.04 0.04 0.04 0.04 0.04 0.04 0.04 0.04 0.04 0.04 0.04 0.04 0.04 0.04 0.04 0.04 0.04 0.04 0.04 0.04 0.04 0.04 0.04 0.04 0.04 0.04 0.04 0.04 0.04 0.04 0.04 0.04 0.04 0.04 0.04 0.04 0.04 0.04 0.04 0.04 0.04 0.04 0.04 0.04 0.04 0.04 0.04 0.04 0.04 0.04 0.04 0.04 0.04 0.04 0.04 0.04 0.04 0.04 0.04 0.04 0.04 0.04 0.04 0.04 0.04 0.04 0.04 0.04 0.04 0.04 0.04 0.04 0.04 0.04 0.04 0.04 0.04 0.04 0.04 0.04 0.04 0.04 0.04 0.04 0.04 0.04 0.04 0.04 0.04 0.04 0.04 0.04 0.04 0.04 0.04 0.04 0.04 0.04 0.04 0.04 0.04 0.04 0.04 0.04 0.04 0.04 0.04 0.04 0.04 0.04 0.04 0.04 0.04 0.04 0.04 0.04 0.04 0.04 0.04 0.04 0.04 0.04 0.04 0.04 0.04 0.04 0.04 0.04 0.04 0.04 0.04 0.04 0.04 0.04 0.04 0.04 0.04 0.04 0.04 0.04 0.04 0.04 0.04 0.04 0.04 0.04 0.04 0.04 0.04 0.04 0.04 0.04 0.04 0.04 0.04 0.04 0.04 0.04 0.04 0.04 0.04 0.04 0.04 0.04 0.04 0.04 0.04 0.04 0.04 0.04 0.04 0.04 0.04 0.04 0.04 0.04 -0.04 -0.04 -0.04 -0.04 -0.04 -0.04 -0.04 -0.04 -0.04 -0.04 -0.04 -0.04 -0.04 -0.04 -0.04 -0.04 -0.04 -0.04 -0.04 -0.04 -0.04 -0.04 -0.04 -0.04 -0.04 -0.04 -0.04 -0.04 -0.04 -0.04 -0.04 -0.04 -0.04 -0.04 -0.04 -0.04 -0.04 -0.04 -0.04 -0.04 -0.04 -0.04 -0.04 -0.04 -0.04 -0.04 -0.04 -0.04 -0.04 -0.04 -0.04 -0.04 -0.04 -0.04 -0.04 -0.04 -0.04 -0.04 -0.04 -0.04 -0.04 -0.04 -0.04 -0.04 -0.04 -0.04 -0.04 -0.04 -0.04 -0.04 -0.04 -0.04 -0.04 -0.04 -0.04 -0.04 -0.04 -0.04 -0.04 -0.04 -0.04 -0.04 -0.04 -0.04 -0.04 -0.04 -0.04 -0.04 -0.04 -0.04 -0.04 -0.04 -0.04 -0.04 -0.04 -0.04 -0.04 -0.04 -0.04 -0.04 -0.04 -0.04 -0.04 -0.04 -0.04 -0.04 -0.04 -0.04 -0.04 -0.04 -0.04 -0.04 -0.04 -0.04 -0.04 -0.04 -0.04 -0.04 -0.04 -0.04 -0.04 -0.04 -0.04 -0.04 -0.04 -0.04 -0.04 -0.04 -0.04 -0.04 -0.04 -0.04 -0.04 -0.04 -0.04 -0.04 -0.04 -0.04 -0.04 -0.04 -0.04 -0.04 -0.04 -0.04 -0.04 -0.04 -0.04 -0.04 -0.04 -0.04 -0.04 -0.04 -0.04 -0.04 -0.04 -0.04 -0.04 -0.04 -0.04 -0.04 -0.04 -0.04 -0.04 -0.04 -0.04 -0.04 -0.04 -0.04 -0.04 -0.04 -0.04 -0.04 -0.04 -0.04 -0.04 -0.04 -0.04 -0.04 -0.04 -0.04 -0.04 -0.04 -0.04 -0.04 -0.04 -0.04 -0.04 -0.04 -0.04 -0.04 -0.04 -0.04 -0.04 -0.04 -0.04 -0.04 -0.04 -0.04 -0.04 -0.04 -0.04 -0.04 -0.04 -0.04 -0.04 -0.04 -0.04 -0.04 -0.04 -0.04 -0.04 -0.04 -0.04 -0.04 -0.04 -0.04 -0.04 -0.04 -0.04 -0.04 -0.04 -0.04 -0.04 -0.04 -0.04 -0.04 -0.04 -0.04 -0.04 -0.04 -0.04 -0.04 -0.04 -0.04 -0.04 -0.04 -0.04 -0.04 -0.04 -0.04 -0.04 -0.04 -0.04 -0.04 -0.04 -0.04 -0.04 -0.04 -0.04 -0.04 -0.04 -0.04 -0.04 -0.04 -0.04 -0.04 -0.04 -0.04 -0.04 -0.04 -0.04 -0.04 -0.04 -0.04 -0.04 -0.04 -0.04 -0.04 -0.04 -0.04 -0.04 -0.04 -0.04 -0.04 -0.04 -0.04 -0.04 -0.04 -0.04 -0.04 -0.04 -0.04 -0.04 -0.04 -0.04 -0.04 -0.04 -0.04 -0.04 -0.04 -0.04 -0.04 -0.04 -0.04 -0.04 -0.04 -0.04 -0.04 -0.04 -0.04 -0.04 -0.04 -0.04 -0.04 -0.04 -0.04 -0.04 -0.04 -0.04 -0.04 -0.04 -0.04 -0.04 -0.04 -0.04 -0.04 -0.04 -0.04 -0.04 -0.04 -0.04 -0.04 -0.04 -0.04 -0.04 -0.04 -0.04 -0.04 -0.04 -0.04 -0.04 -0.04 -0.04 -0.04 -0.04 -0.04 -0.04 -0.04 -0.04 -0.04 -0.04 -0.04 -0.04 -0.04 -0.04 -0.04 -0.04 -0.04 -0.04 -0.04 -0.04 -0.04 -0.04 -0.04 -0.04 -0.04 -0.04 -0.04 -0.04 -0.04 -0.04 -0.04 -0.04 -0.04 -0.04 -0.04 -0.04 -0.04 -0.04 -0.04 -0.04 -0.04 -0.04 -0.04 -0.04 -0.04 -0.04 -0.04 -0.04 -0.04 -0.04 -0.04 -0.04 -0.04 -0.04 -0.04 -0.04 -0.04 -0.04 -0.04 -0.04 -0.04 -0.04 -0.04 -0.04 -0.04 -0.04 -0.04 -0.04 -0.04 -0.04 -0.04 -0.04 -0.04 -0.04 -0.04 -0.04 -0.04 -0.04 -0.04 -0.04 -0.04 -0.04 -0.04 -0.04 -0.04 -0.04 -0.04 -0.04 -0.04 -0.04 -0.04 -0.04 -0.04 -0.04 -0.04 -0.04 -0.04 -0.04 -0.04 -0.04 -0.04 -0.04 -0.04 -0.04 -0.04 -0.04 -0.04 -0.04 -0.04 -0.04 -0.04 -0.04 -0.04 -0.04 -0.04 -0.04 -0.04 -0.04 -0.04 -0.04 -0.04 -0.04 -0.04 -0.04 -0.04 -0.04 -0.04 -0.04 -0.04 -0.04 -0.04 -0.04 -0.04 -0.04 -0.04 -0.04 -0.04 -0.04 -0.04 -0.04 -0.04 -0.04 -0.04 -0.04 -0.04 -0.04 -0.04 -0.04 -0.04 -0.04 -0.04 -0.04 -0.04 -0.04 -0.04 -0.04 -0.04 -0.04 -0.04 -0.04 -0.04 -0.04 -0.04 -0.04 -0.04 -0.04 -0.04 -0.04 -0.04 -0.04 -0.04 -0.04 -0.04 -0.04 -0.04 -0.04 -0.04 -0.04 -0.04 -0.04 -0.04 -0.04 -0.04 -0.04 -0.04 -0.04 -0.04 -0.04 -0.04 -0.04 -0.04 -0.04 -0.04 -0.04 -0.04 -0.04 -0.04 -0.04 -0.04 -0.04 -0.04 -0.04 -0.04 -0.04 -0.04 -0.04 -0.04 -0.04 -0.04 -0.04 -0.04 -0.04 -0.04 -0.04 -0.04 -0.04 -0.04 -0.04 -0.04 -0.04 -0.04 -0.04 -0.04 -0.04 -0.04 -0.04 -0.04 -0.04 -0.04 -0.04 -0.04 -0.04 -0.04 -0.04 -0.04 -0.04 -0.04 -0.04 -0.04 -0.04 -0.04 -0.04 -0.04 -0.04 -0.04 -0.04 -0.04 -0.04 -0.04 -0.04 -0.04 -0.04 -0.04 -0.04 -0.04 -0.04 -0.04 -0.04 -0.04 -0.04 -0.04 -0.04 -0.04 -0.04 -0.04 -0.04 -0.04c0,-0.05 0.01,-0.04 -0.05,-0.02 -0.03,-0.03 0.02,-0.07 -0.07,0.02z"/>
  </g>
 </g>
</svg>
